<svg width="15" height="16" viewBox="0 0 15 16" fill="none" xmlns="http://www.w3.org/2000/svg">
<path d="M0.619629 3.69531C0.749512 3.23047 1.05371 2.08545 1.53223 0.260254C2.5166 0.335449 3.50098 0.414062 4.48535 0.496094C5.47656 0.578125 6.46777 0.656738 7.45898 0.731934C6.95312 1.61377 6.65576 2.42041 6.56689 3.15186C6.48486 3.87646 6.44385 4.44727 6.44385 4.86426C6.44385 5.27441 6.45068 5.59912 6.46436 5.83838C7.16846 5.11377 7.8623 4.26611 8.5459 3.29541C9.22949 2.32471 9.91309 1.31299 10.5967 0.260254C11.9502 2.39307 13.2695 4.13965 14.5547 5.5L10.9146 7.22266L14.5342 13.7031C13.0303 14.6055 11.9365 15.2651 11.2529 15.6821C10.1934 12.9888 9.13379 10.6167 8.07422 8.56592L6.50537 9.31445C6.44385 9.77246 6.34131 10.1963 6.19775 10.5859C6.0542 10.9688 5.79443 11.3003 5.41846 11.5806C5.04248 11.854 4.7041 12.1479 4.40332 12.4624C4.86816 12.6196 5.24072 12.6982 5.521 12.6982C6.26611 12.6982 7.00781 12.6299 7.74609 12.4932L6.00293 15.6821C4.49902 15.2446 2.67725 14.9712 0.537598 14.8618C1.92529 13.645 2.75244 12.0078 3.01904 9.9502C3.29248 7.88574 3.4292 5.77002 3.4292 3.60303C3.4292 3.54834 3.4292 3.49365 3.4292 3.43896C3.29932 3.43213 3.125 3.42871 2.90625 3.42871C2.57129 3.42871 1.80908 3.51758 0.619629 3.69531ZM6.56689 8.00195C8.05029 7.35254 9.3833 6.63135 10.5659 5.83838C10.1079 5.47607 9.70459 4.96338 9.35596 4.30029L6.55664 7.7251C6.55664 7.84131 6.56006 7.93359 6.56689 8.00195Z" fill="black"/>
</svg>
