<?xml version="1.0" standalone="no"?>
<!DOCTYPE svg PUBLIC "-//W3C//DTD SVG 20010904//EN" "http://www.w3.org/TR/2001/REC-SVG-20010904/DTD/svg10.dtd">
<svg version="1.0" xmlns="http://www.w3.org/2000/svg" width="512.000000pt" height="512.000000pt"
  viewBox="0 0 512.000000 512.000000" preserveAspectRatio="xMidYMid meet">

  <g transform="translate(0.000000,512.000000) scale(0.100000,-0.100000)" fill="#000000" stroke="none">
    <path d="M470 3275 l0 -475 295 0 294 0 3 88 3 87 88 3 87 3 0 114 0 114 -87
3 -88 3 -3 56 c-3 66 1 69 109 69 l66 0 6 65 c3 35 3 87 0 114 l-6 50 -86 3
-86 3 -3 88 -3 87 -294 0 -295 0 0 -475z m538 177 l3 -63 -153 3 -153 3 -1 55
c-1 30 0 58 2 61 2 3 70 5 151 5 l148 -1 3 -63z m2 -357 l0 -66 -152 3 -153 3
-3 49 c-5 79 -11 76 158 76 l150 0 0 -65z" />
    <path d="M2290 3660 l0 -90 -90 0 -90 0 0 -295 0 -294 88 -3 87 -3 3 -87 3
-88 204 0 204 0 3 88 3 87 88 3 87 3 0 294 0 294 -87 3 -88 3 -3 88 -3 87
-204 0 -205 0 0 -90z m360 -385 l0 -245 -155 0 -155 0 0 238 c0 131 3 242 7
245 3 4 73 7 155 7 l148 0 0 -245z" />
    <path d="M3750 3275 l0 -475 115 0 115 0 2 268 3 267 60 0 60 0 3 -87 3 -87
87 -3 87 -3 3 -177 2 -178 115 0 115 0 0 475 0 475 -115 0 -115 0 0 -180 0
-180 -65 0 -65 0 0 90 0 90 -90 0 -90 0 0 90 0 90 -115 0 -115 0 0 -475z" />
    <path d="M660 1899 l0 -120 88 3 87 2 1 -359 1 -360 114 0 114 0 3 357 2 357
88 3 87 3 3 118 3 117 -296 0 -295 0 0 -121z" />
    <path d="M2290 1930 l0 -90 -90 0 -90 0 2 -387 3 -388 110 0 110 -1 5 181 5
180 90 3 c50 2 118 0 152 -3 l63 -7 2 -176 3 -177 113 0 112 0 0 387 0 388
-90 0 -90 0 0 90 0 90 -205 0 -205 0 0 -90z m338 -150 c20 0 22 -5 22 -60 l0
-60 -155 0 -155 0 0 59 c0 71 -6 68 155 64 61 -1 120 -3 133 -3z" />
    <path d="M3750 1546 c0 -370 3 -475 13 -479 6 -2 138 -4 292 -3 l280 1 3 118
3 117 -181 0 -180 0 0 360 0 360 -115 0 -115 0 0 -474z" />
  </g>
</svg>
